<svg height="512pt" viewBox="0 0 512 512.0015" width="512pt" xmlns="http://www.w3.org/2000/svg"><path d="m472.523438 39.476562c-52.636719-52.636718-138.28125-52.636718-190.917969 0l-46.753907 46.757813 63.640626 63.636719 46.753906-46.753906c17.542968-17.546876 46.09375-17.546876 63.636718 0 17.546876 17.546874 17.546876 46.09375 0 63.640624l-25.601562 25.605469-53.035156 10.605469-10.605469 53.03125-84.789063 84.789062 63.636719 63.648438 84.792969-84.796875 53.035156-10.605469 10.605469-53.035156 25.601563-25.601562c52.636718-52.636719 52.636718-138.285157 0-190.921876zm0 0" fill="#3b88f5"/><path d="m383.28125 192.359375-127.28125-127.277344h-60l60 127.277344 63.640625 63.640625zm0 0" fill="#5515a6"/><path d="m472.523438 281.605469-25.601563-25.605469-63.640625 63.640625 25.601562 25.605469c17.546876 17.542968 17.546876 46.09375 0 63.636718-17.542968 17.546876-46.09375 17.546876-63.636718 0l-89.246094-89.242187h-60l60 127.277344 25.605469 25.605469c52.636719 52.636718 138.28125 52.636718 190.917969 0 52.636718-52.636719 52.636718-138.28125 0-190.917969zm0 0" fill="#5515a6"/><path d="m256 446.917969v-127.277344l-152.882812-152.882813c-17.542969-17.546874-17.542969-46.09375 0-63.640624 17.546874-17.546876 46.09375-17.546876 63.640624 0l89.242188 89.242187v-127.277344l-25.601562-25.605469c-52.636719-52.636718-138.28125-52.636718-190.921876 0-52.636718 52.636719-52.636718 138.28125 0 190.921876l152.886719 152.882812 17.675781 45.960938zm0 0" fill="#793bcc"/><path d="m192.363281 383.28125-25.605469 25.601562c-17.546874 17.546876-46.09375 17.546876-63.640624 0-17.546876-17.546874-17.546876-46.09375 0-63.640624l152.820312-152.816407-63.640625-63.640625-152.816406 152.820313c-52.636719 52.636719-52.636719 138.28125 0 190.917969 52.636719 52.636718 138.28125 52.636718 190.917969 0l25.601562-25.605469zm0 0" fill="#28abfa"/></svg>